# xmcd
#
# Track frame offsets: 
#        150
#        12908
#        30670
#        44027
#        73562
#        85957
#        100913
#        118244
#        136160
#        153679
#        169172
#        184853
#        203202
#        224054
#
# Disc length: 3175 seconds
#
# Revision: 0
# Processed by: cddbd v1.4PL0 Copyright (c) Steve Scherf et al.
# Submitted via: ExactAudioCopy v0.90b4
#
DISCID=d10c650e
DTITLE=B.C. Read - My Tunes
DYEAR=1997
DGENRE=Blues
TTITLE0=Believe Me
TTITLE1=New Thing
TTITLE2=The Job
TTITLE3=Love to Keep Me Warm
TTITLE4=Starts All Over Again
TTITLE5=Workin' On You
TTITLE6=Big Car
TTITLE7=Tough As She Can Be
TTITLE8=Unconditional
TTITLE9=Blues in Paradise
TTITLE10=Long Distance
TTITLE11=Two Faced Man
TTITLE12=Make It Up
TTITLE13=That's My Tune
EXTD=
EXTT0=
EXTT1=
EXTT2=
EXTT3=
EXTT4=
EXTT5=
EXTT6=
EXTT7=
EXTT8=
EXTT9=
EXTT10=
EXTT11=
EXTT12=
EXTT13=
PLAYORDER=
